<svg xmlns="http://www.w3.org/2000/svg" height="800" width="1200" viewBox="-45 -46.1785 390 277.071"><path d="M295.269 155.043h.94c.481 0 1.002.093 1.002.699 0 .723-.574.755-1.199.755h-.743zm-.708 3.99h.708v-1.967h.752l1.243 1.967h.762l-1.306-2.018c.678-.069 1.201-.417 1.201-1.241 0-.879-.509-1.305-1.597-1.305h-1.764v4.564zm-1.703-2.3c0-1.866 1.398-3.311 3.224-3.311 1.808 0 3.21 1.444 3.21 3.311 0 1.911-1.403 3.355-3.21 3.355-1.826 0-3.224-1.444-3.224-3.355zm-.711 0c0 2.244 1.796 3.93 3.935 3.93a3.897 3.897 0 003.918-3.93c0-2.204-1.787-3.884-3.918-3.884-2.139 0-3.935 1.68-3.935 3.884zm-43.741-5.806v6.527h-16.349v7.374h11.23a6.909 6.909 0 016.911 6.911v6.063a6.909 6.909 0 01-6.911 6.911h-18.994v-6.526h18.765v-6.833h-11.231a6.91 6.91 0 01-6.911-6.911v-6.605a6.913 6.913 0 016.911-6.911zm37.471 33.787h-16.579a6.91 6.91 0 01-6.911-6.911v-19.965a6.913 6.913 0 016.911-6.911h16.579v6.527h-16.349v7.526h16.349v6.527h-16.349v6.68h16.349zm-111.955 0h-16.579a6.91 6.91 0 01-6.91-6.911v-19.965a6.914 6.914 0 016.91-6.911h16.579v6.527h-16.347v7.526h16.347v6.527h-16.347v6.68h16.347zm-95.37-33.787h15.741a6.913 6.913 0 016.911 6.911v26.876h-7.141v-27.26H82.162v27.26h-7.141v-33.787zm115.334 14.054h12.663v-7.527h-12.663zm19.803-6.217v5.833a6.909 6.909 0 01-6.073 6.86l6.695 13.257h-8.038l-5.84-13.206h-6.547v13.206h-7.14v-33.787h20.035a6.913 6.913 0 016.91 6.911v.926zm-96.128-7.837l7.985 28.107 8.447-28.107h8.139l-10.903 33.787h-11.211l-10.443-33.787zM0 157.838a6.914 6.914 0 016.91-6.911h17.738v6.527H7.142v20.733h17.507v6.526H6.911a6.91 6.91 0 01-6.91-6.911v-19.964zm35.552 0a6.914 6.914 0 016.911-6.911h14.742a6.914 6.914 0 016.912 6.911v19.965a6.91 6.91 0 01-6.912 6.911H42.463a6.91 6.91 0 01-6.911-6.911zm7.142-.383h14.283v20.733H42.694zm102.546-132.5l9.183 28.265h29.719l-24.043 17.465 9.184 28.27-24.043-17.47-24.043 17.47 9.183-28.27-24.042-17.465h29.718zm55.401 39.929c0 30.598-24.804 55.399-55.402 55.399-30.598 0-55.403-24.802-55.403-55.399S114.642 9.48 145.239 9.48c30.597 0 55.402 24.807 55.402 55.404zM145.24 0c-35.834 0-64.883 29.047-64.883 64.885 0 35.833 29.049 64.88 64.883 64.88 35.834 0 64.882-29.047 64.882-64.88C210.121 29.046 181.074 0 145.24 0z" clip-rule="evenodd" fill-rule="evenodd"/></svg>