<svg xmlns="http://www.w3.org/2000/svg" height="800" width="1200" version="1" viewBox="-127.49205 -77.99725 1104.9311 467.9835"><path d="M 12.1 263.7 h 6.7 v 20.1 h 25.7 v -20.1 h 6.5 v 46.9 h -6.5 v -21.4 H 18.8 v 21.4 h -6.7 v -46.9 z m 142.8 29.9 c 0 11.8 -7.2 18.1 -19.4 18.1 c -12.5 0 -20.1 -5.6 -20.1 -18.1 v -29.9 h 6.7 v 29.9 c 0 8.3 4.9 13 13.4 13 c 8.3 0 13 -4.7 13 -13 v -29.9 h 6.5 v 29.9 z m 81.1 18.3 c -14.7 0.9 -23.7 -11.6 -23.7 -23.9 c 0 -13.6 7.8 -25.5 23.5 -25.5 c 10.7 0 19.2 4.5 21 15.6 h -6.5 c -1.3 -7.2 -7.4 -10.5 -14.5 -10.5 c -12.1 0 -17 10.1 -17 20.1 c 0 9.8 6.3 19.2 18.1 19 c 6 -0.2 10.9 -1.3 13.4 -5.4 c 1.8 -2.5 1.3 -6.9 1.1 -10.3 h -15.6 v -5.4 h 21.4 v 17.7 c -5.6 6.9 -12.3 8 -21.2 8.5 z m 101.4 -5.4 c 11.8 0 17 -10.1 17 -19.4 c 0 -9.4 -5.1 -19.4 -17 -19.4 c -12.1 0 -17 10.1 -17 19.4 c 0 9.4 4.9 19.4 17 19.4 z m 0 -44 c 15.6 0 23.5 11.8 23.5 24.6 c 0 12.7 -7.8 24.6 -23.5 24.6 c -15.6 0 -23.5 -11.8 -23.5 -24.6 c 0 -12.7 7.8 -24.6 23.5 -24.6 z m 155.1 21.2 h 13 c 7.4 0 10.5 -2.5 10.5 -7.4 c 0 -6.5 -4.7 -7.6 -10.5 -7.6 h -13 v 15 z m 0 21.7 h 16.3 c 5.6 0 9.2 -3.4 9.2 -8.5 c 0 -6 -5.1 -7.8 -10.7 -7.8 H 492.5 v 16.3 z m -6.5 -41.8 h 17.7 c 4.5 0 10.1 0 13 1.6 c 3.4 2 5.8 5.4 5.8 9.8 c 0 5.1 -2.7 8.9 -7.2 10.7 c 6 1.1 9.4 5.6 9.4 11.4 c 0 6.9 -5.4 13.4 -15 13.4 h -23.7 v -46.9 z m 120.7 42.9 c 12.1 0 17 -10.1 17 -19.4 c 0 -9.4 -4.9 -19.4 -17 -19.4 c -11.8 0 -17 10.1 -17 19.4 c 0 9.4 5.1 19.4 17 19.4 z m 0 -44 c 15.6 0 23.7 11.8 23.7 24.6 c 0 12.7 -8 24.6 -23.7 24.6 s -23.5 -11.8 -23.5 -24.6 c 0 -12.7 7.8 -24.6 23.5 -24.6 z m 113.7 15 c -0.7 -6.9 -5.4 -9.8 -12.1 -9.8 c -5.6 0 -10.9 2 -10.9 8 c 0 5.8 7.8 6.7 15.6 8.5 c 7.8 1.6 15.6 4.2 15.6 13.6 c 0 9.8 -10.3 13.9 -19.2 13.9 c -10.9 0 -20.1 -5.1 -20.1 -16.5 h 6 c 0 7.8 6.9 11.4 14.3 11.4 c 6 0 12.5 -1.8 12.5 -8.7 c 0 -6.5 -7.8 -7.4 -15.6 -9.2 c -7.8 -1.6 -15.9 -3.8 -15.9 -12.5 c 0 -9.4 8.9 -13.6 17.9 -13.6 c 10.1 0 17.7 4.5 18.1 15 h -6.3 z m 105.9 0 c -0.9 -6.9 -5.6 -9.8 -12.3 -9.8 c -5.4 0 -10.9 2 -10.9 8 c 0 5.8 7.8 6.7 15.9 8.5 c 7.8 1.6 15.6 4.2 15.6 13.6 c 0 9.8 -10.3 13.9 -19.2 13.9 c -10.9 0 -20.3 -5.1 -20.3 -16.5 h 6.3 c 0 7.8 6.9 11.4 14.3 11.4 c 5.8 0 12.5 -1.8 12.5 -8.7 c 0 -6.5 -8 -7.4 -15.9 -9.2 c -7.8 -1.6 -15.6 -3.8 -15.6 -12.5 c 0 -9.4 8.7 -13.6 17.9 -13.6 c 9.8 0 17.7 4.5 17.9 15 h -6 z M 69.8 15.7 v 84.5 h 30.6 s 2.7 -0.2 4.2 -0.7 c 17.9 -1.6 29.3 -23 30.4 -38.7 c 1.8 -16.8 -8.5 -44.5 -34.2 -45.1 c -7.6 -0.2 -31.1 0 -31.1 0 z m 0 94.3 v 101.2 h 27.7 s 15.6 1.1 29.7 -10.3 c 13.9 -11.2 21 -27.7 19.4 -46.7 c -1.1 -17 -14.1 -41.1 -43.1 -44.2 h -33.7 z M 135 5.8 c 23 1.3 38 13.6 39.3 15.2 c 11.8 10.9 15.4 27.5 12.5 43.3 c -3.8 26.6 -36.9 37.8 -36.9 37.8 c 27.7 3.4 48.5 24.1 51.6 46.5 c 2.7 21.9 -5.4 41.3 -23.5 55 c -18.3 13.6 -45.1 18.1 -59.7 18.1 H 0.1 v -9.4 c 15.2 0.2 17 0.2 17 -5.8 c -0.2 -22.8 0 -181.9 0 -186.1 c 0 -4.9 -2.5 -5.1 -17 -5.1 c -0.2 -3.8 0.2 -9.4 0.2 -9.4 H 135 z m 182.8 11.6 c -14.7 9.8 -25 32.4 -29.9 51.2 c -7.8 28.4 -6.3 61.9 1.6 96.3 c 8 34.4 30.2 46.5 43.3 49.4 c 24.6 5.6 40.7 -8.7 49.4 -21.9 c 17 -25.7 21.2 -78.7 15.9 -109 c -4.9 -28.2 -12.5 -47.8 -27.3 -61 c -16.5 -14.5 -40.2 -13.4 -53 -4.9 z m 132.5 133.6 c -10.3 30.6 -30.8 49.8 -54.5 62.3 c -31.1 16.8 -75.5 19.4 -106.6 0.9 c -19.2 -11.4 -68.1 -41.8 -61.7 -113.5 c 1.3 -15.4 9.2 -54.1 52.3 -83.1 c 29.5 -19.2 71.9 -24.8 111.5 -6.5 c 61.7 28.2 74.6 97.6 59 139.9 z M 631.5 15.9 c 0.2 16.1 0 49.4 0 49.4 l -7.8 0.2 c -4.7 -20.8 -14.7 -38.7 -32 -46.9 c -16.5 -8 -41.6 -12.1 -57.9 2.2 c -9.6 8.5 -10.9 17.2 -7.6 27 c 5.8 14.5 21.9 19 34.4 24.6 c 10.3 4 32.2 11.2 32.2 11.2 c 24.4 8.5 51.4 25 58.8 52.5 c 3.4 11.8 3.4 25.3 0.7 37.3 c -6 26.8 -23.2 33.3 -33.1 40 c -4.9 3.4 -50.9 21 -106.4 2.9 c -11.4 -3.8 -24.6 -8.3 -24.6 -8.3 V 147.9 s 6 0.2 8.5 0.2 c 3.8 9.6 7.2 21.2 15.2 32.8 c 18.8 27.3 45.4 35.5 74.6 29.3 c 11.6 -2.7 24.4 -10.7 27.7 -22.8 c 4.2 -13.6 2.9 -36.2 -38.2 -51.4 c -29.7 -13.6 -67 -19.2 -84.7 -52.3 c -6.9 -18.5 -4.9 -50.7 17.9 -66.4 c 23 -15.6 45.4 -19.2 72.4 -15.6 c 26.8 3.8 34 7.4 49.8 14.1 z m 195.7 0 c 0.2 16.1 0 49.4 0 49.4 l -7.8 0.2 c -4.7 -20.8 -14.7 -38.7 -32 -46.9 c -16.5 -8 -41.6 -12.1 -57.9 2.2 c -9.6 8.5 -10.9 17.2 -7.6 27 c 5.8 14.5 21.9 19 34.4 24.6 c 10.3 4 32.2 11.2 32.2 11.2 c 24.4 8.5 51.4 25 58.8 52.5 c 3.4 11.8 3.4 25.3 0.7 37.3 c -6 26.8 -23.2 33.3 -33.1 40 c -4.9 3.4 -50.9 21 -106.4 2.9 c -11.4 -3.8 -24.6 -8.3 -24.6 -8.3 V 147.9 s 6 0.2 8.5 0.2 c 3.8 9.6 7.2 21.2 15.2 32.8 c 18.8 27.3 45.4 35.5 74.6 29.3 c 11.6 -2.7 24.4 -10.7 27.7 -22.8 c 4.2 -13.6 2.9 -36.2 -38.2 -51.4 c -29.7 -13.6 -67 -19.2 -84.7 -52.3 c -6.9 -18.5 -4.9 -50.7 18.1 -66.4 c 22.8 -15.6 45.1 -19.2 71.9 -15.6 c 27 3.8 34.2 7.4 50 14.1 z" class="ps010" fill="#ffffff"/></svg>